<svg width="67" height="76" viewBox="0 0 67 76" fill="none" xmlns="http://www.w3.org/2000/svg">
<path d="M33.3286 7.51427C27.014 7.45428 22.1057 7.40766 18.2808 7.83704C14.4122 8.27531 11.3433 9.23037 8.88238 11.43C6.35556 13.6911 5.15831 16.651 4.57308 20.3928C4.01656 23.9642 3.97771 28.5154 3.92927 34.1904L3.92443 34.7586C3.87721 40.2908 3.84453 44.1186 4.36525 46.9768C4.64647 48.5164 5.09838 49.8557 5.8155 51.0982C6.5246 52.322 7.43157 53.3552 8.51595 54.359C10.2223 55.9431 12.2418 56.9093 14.6324 57.5219L14.5638 65.5501C14.5607 65.958 14.6517 66.3596 14.8277 66.7146C15.0037 67.0696 15.2585 67.3656 15.5667 67.5729C15.8749 67.7802 16.2256 67.8915 16.5837 67.8958C16.9418 67.9 17.2948 67.797 17.6072 67.5971C19.2131 66.5723 20.6372 65.4526 21.9409 64.3969L22.7752 63.7187C23.7038 62.9413 24.6518 62.1945 25.618 61.4792C27.9327 59.7998 30.1388 58.7124 33.0195 58.7397L33.1476 58.741C39.4622 58.8009 44.3705 58.8476 48.1954 58.4182C52.064 57.9799 55.133 57.0249 57.5939 54.8252C58.6925 53.8421 59.6197 52.8264 60.3468 51.6162C61.0877 50.3876 61.5624 49.057 61.8699 47.5231C62.4393 44.6753 62.472 40.8474 62.5192 35.3152L62.5241 34.7471C62.5725 29.072 62.6114 24.5208 62.1159 20.9426C61.5946 17.1871 60.4481 14.2049 57.9603 11.8962C55.5374 9.64708 52.4852 8.63699 48.6247 8.12839C44.8078 7.62332 39.8994 7.57669 33.5848 7.5167L33.3286 7.51427Z" fill="black"/>
<rect width="49.3838" height="36.312" rx="13" transform="matrix(0.999942 0.00949894 -0.0085353 0.999974 7.29825 14.8032)" fill="#5E5E5E" fill-opacity="0.7"/>
<mask id="path-3-outside-1_61_133" maskUnits="userSpaceOnUse" x="39.6103" y="26.8275" width="13.0363" height="16.0427" fill="black">
<rect fill="white" x="39.6103" y="26.8275" width="13.0363" height="16.0427"/>
<path d="M51.6369 38.5282L40.7346 41.5469L40.7316 40.2046L49.6113 37.8956L49.611 37.7891L40.7208 35.4958L40.7175 34.0044L49.5971 31.6527L49.5968 31.5462L40.7068 29.2956L40.7037 27.9532L51.6195 30.9003L51.6226 32.264L42.935 34.7002L42.9351 34.7854L51.6338 37.1645L51.6369 38.5282Z"/>
</mask>
<path d="M51.6369 38.5282L40.7346 41.5469L40.7316 40.2046L49.6113 37.8956L49.611 37.7891L40.7208 35.4958L40.7175 34.0044L49.5971 31.6527L49.5968 31.5462L40.7068 29.2956L40.7037 27.9532L51.6195 30.9003L51.6226 32.264L42.935 34.7002L42.9351 34.7854L51.6338 37.1645L51.6369 38.5282Z" fill="white"/>
<path d="M51.6369 38.5282L51.8496 39.2991L52.4382 39.1362L52.4369 38.5255L51.6369 38.5282ZM40.7346 41.5469L39.9346 41.5496L39.937 42.5977L40.9474 42.3179L40.7346 41.5469ZM40.7316 40.2046L40.531 39.4304L39.9301 39.5866L39.9316 40.2072L40.7316 40.2046ZM49.6113 37.8956L49.8119 38.6699L50.4127 38.5136L50.4113 37.893L49.6113 37.8956ZM49.611 37.7891L50.411 37.7864L50.4096 37.1687L49.8116 37.0144L49.611 37.7891ZM40.7208 35.4958L39.9209 35.4985L39.9223 36.1162L40.5203 36.2705L40.7208 35.4958ZM40.7175 34.0044L40.5134 33.231L39.9161 33.3892L39.9175 34.007L40.7175 34.0044ZM49.5971 31.6527L49.8011 32.4261L50.3985 32.2679L50.3971 31.6501L49.5971 31.6527ZM49.5968 31.5462L50.3968 31.5436L50.3954 30.9229L49.7939 30.7706L49.5968 31.5462ZM40.7068 29.2956L39.9068 29.2982L39.9082 29.9188L40.5097 30.0711L40.7068 29.2956ZM40.7037 27.9532L40.9129 27.1809L39.9013 26.9077L39.9037 27.9559L40.7037 27.9532ZM51.6195 30.9003L52.4195 30.8977L52.4181 30.2871L51.8288 30.128L51.6195 30.9003ZM51.6226 32.264L51.8379 33.0343L52.424 32.8699L52.4226 32.2613L51.6226 32.264ZM42.935 34.7002L42.7197 33.9299L42.1336 34.0943L42.135 34.7028L42.935 34.7002ZM42.9351 34.7854L42.1352 34.7881L42.1365 35.3966L42.7234 35.5571L42.9351 34.7854ZM51.6338 37.1645L52.4338 37.1619L52.4324 36.5534L51.8455 36.3929L51.6338 37.1645ZM51.4241 37.7572L40.5219 40.776L40.9474 42.3179L51.8496 39.2991L51.4241 37.7572ZM41.5346 41.5443L41.5316 40.202L39.9316 40.2072L39.9346 41.5496L41.5346 41.5443ZM40.9322 40.9789L49.8119 38.6699L49.4107 37.1214L40.531 39.4304L40.9322 40.9789ZM50.4113 37.893L50.411 37.7864L48.811 37.7917L48.8113 37.8982L50.4113 37.893ZM49.8116 37.0144L40.9214 34.7212L40.5203 36.2705L49.4105 38.5637L49.8116 37.0144ZM41.5208 35.4932L41.5175 34.0017L39.9175 34.007L39.9209 35.4985L41.5208 35.4932ZM40.9215 34.7777L49.8011 32.4261L49.393 30.8794L40.5134 33.231L40.9215 34.7777ZM50.3971 31.6501L50.3968 31.5436L48.7968 31.5488L48.7971 31.6554L50.3971 31.6501ZM49.7939 30.7706L40.9038 28.52L40.5097 30.0711L49.3998 32.3217L49.7939 30.7706ZM41.5067 29.2929L41.5037 27.9506L39.9037 27.9559L39.9068 29.2982L41.5067 29.2929ZM40.4945 28.7256L51.4103 31.6727L51.8288 30.128L40.9129 27.1809L40.4945 28.7256ZM50.8195 30.903L50.8226 32.2666L52.4226 32.2613L52.4195 30.8977L50.8195 30.903ZM51.4073 31.4937L42.7197 33.9299L43.1502 35.4705L51.8379 33.0343L51.4073 31.4937ZM42.135 34.7028L42.1352 34.7881L43.7351 34.7828L43.7349 34.6976L42.135 34.7028ZM42.7234 35.5571L51.422 37.9362L51.8455 36.3929L43.1469 34.0137L42.7234 35.5571ZM50.8338 37.1672L50.8369 38.5308L52.4369 38.5255L52.4338 37.1619L50.8338 37.1672Z" fill="white" mask="url(#path-3-outside-1_61_133)"/>
<path d="M32.2982 38.0315C31.4576 38.0522 30.7271 37.8845 30.1069 37.5285C29.4904 37.1685 29.0079 36.6575 28.6594 35.9954C28.3147 35.3295 28.1296 34.5497 28.1043 33.6562C28.0789 32.7626 28.2194 31.9711 28.5257 31.2815C28.8358 30.5881 29.2788 30.043 29.8549 29.6462C30.4347 29.2454 31.1184 29.0354 31.9061 29.016C32.3605 29.0048 32.8114 29.0695 33.2588 29.2101C33.7061 29.3506 34.1164 29.5868 34.4896 29.9187C34.8627 30.2467 35.165 30.6864 35.3967 31.2376C35.6283 31.7889 35.7557 32.4716 35.7788 33.2856L35.7949 33.8535L29.0695 34.0189L29.0366 32.8603L34.3988 32.7285C34.3848 32.2363 34.2739 31.7995 34.066 31.4181C33.8619 31.0367 33.5769 30.7387 33.2108 30.5241C32.8485 30.3095 32.425 30.2081 31.9403 30.22C31.4063 30.2332 30.9481 30.3771 30.5656 30.6517C30.1867 30.9224 29.8991 31.2705 29.7028 31.6959C29.5064 32.1213 29.415 32.5744 29.4287 33.0553L29.4506 33.8277C29.4693 34.4865 29.5987 35.0422 29.8389 35.4947C30.0828 35.9434 30.4126 36.282 30.8284 36.5104C31.244 36.7351 31.7226 36.8408 32.2641 36.8275C32.6163 36.8188 32.933 36.7618 33.2142 36.6564C33.4991 36.5471 33.7428 36.3895 33.9454 36.1837C34.1479 35.9741 34.3016 35.7165 34.4066 35.4108L35.712 35.7424C35.5882 36.185 35.37 36.5768 35.0576 36.9179C34.745 37.2553 34.3547 37.5225 33.8866 37.7197C33.4184 37.9131 32.889 38.017 32.2982 38.0315Z" fill="black" fill-opacity="0.8"/>
<path d="M14.4338 30.3259L26.0701 30.2868L26.0734 31.6504L16.952 38.022L16.9523 38.1356L26.0886 38.105L26.092 39.514L14.4557 39.5531L14.4524 38.1895L23.5964 31.7951L23.5962 31.6815L14.4371 31.7122L14.4338 30.3259Z" fill="#FFFAFA"/>
<path d="M14.4338 30.3259L14.433 29.9759L14.083 29.9771L14.0838 30.3271L14.4338 30.3259ZM26.0701 30.2868L26.4201 30.2856L26.4193 29.9356L26.0693 29.9368L26.0701 30.2868ZM26.0734 31.6504L26.2736 31.9373L26.4238 31.8324L26.4234 31.6492L26.0734 31.6504ZM16.952 38.022L16.7518 37.7351L16.6016 37.8401L16.602 38.0232L16.952 38.022ZM16.9523 38.1356L16.6023 38.1368L16.6031 38.4868L16.9531 38.4856L16.9523 38.1356ZM26.0886 38.105L26.4386 38.1038L26.4378 37.7538L26.0878 37.755L26.0886 38.105ZM26.092 39.514L26.0928 39.864L26.4428 39.8629L26.442 39.5129L26.092 39.514ZM14.4557 39.5531L14.1057 39.5543L14.1065 39.9043L14.4565 39.9031L14.4557 39.5531ZM14.4524 38.1895L14.252 37.9027L14.102 38.0077L14.1024 38.1907L14.4524 38.1895ZM23.5964 31.7951L23.7968 32.0819L23.9469 31.9769L23.9464 31.7939L23.5964 31.7951ZM23.5962 31.6815L23.9462 31.6803L23.9453 31.3303L23.5953 31.3315L23.5962 31.6815ZM14.4371 31.7122L14.0871 31.7134L14.0879 32.0634L14.4379 32.0622L14.4371 31.7122ZM14.4347 30.6759L26.071 30.6368L26.0693 29.9368L14.433 29.9759L14.4347 30.6759ZM25.7201 30.288L25.7234 31.6516L26.4234 31.6492L26.4201 30.2856L25.7201 30.288ZM25.8731 31.3636L16.7518 37.7351L17.1523 38.3089L26.2736 31.9373L25.8731 31.3636ZM16.602 38.0232L16.6023 38.1368L17.3023 38.1345L17.302 38.0208L16.602 38.0232ZM16.9531 38.4856L26.0895 38.4549L26.0878 37.755L16.9515 37.7856L16.9531 38.4856ZM25.7386 38.1061L25.742 39.5152L26.442 39.5129L26.4386 38.1038L25.7386 38.1061ZM26.0911 39.164L14.4548 39.2031L14.4565 39.9031L26.0928 39.864L26.0911 39.164ZM14.8057 39.5519L14.8024 38.1883L14.1024 38.1907L14.1057 39.5543L14.8057 39.5519ZM14.6528 38.4763L23.7968 32.0819L23.396 31.5083L14.252 37.9027L14.6528 38.4763ZM23.9464 31.7939L23.9462 31.6803L23.2462 31.6826L23.2464 31.7963L23.9464 31.7939ZM23.5953 31.3315L14.4363 31.3622L14.4379 32.0622L23.597 32.0315L23.5953 31.3315ZM14.7871 31.7111L14.7838 30.3247L14.0838 30.3271L14.0871 31.7134L14.7871 31.7111Z" fill="white"/>
</svg>
